#N canvas -14 0 1916 1923 10;
#X obj 473 11 netreceive 3000;
#X msg 1229 107 \; pd dsp 1;
#X obj 1229 36 loadbang;
#X obj 1229 76 del 100;
#X text 1145 75 important ->;
#X obj 574 77 route 0 1 2;
#X text 602 2 0=Frequenz 1=Volume werte von 0-1 2= welcher sopund (1=8bit
0=sinus;
#X floatatom 474 225 5 0 0 0 - - -;
#X text 257 93 zum testen (so wie print zwischendurch);
#X obj 513 582 dac~;
#X obj 509 388 osc~;
#X obj 614 133 * 0.01;
#X floatatom 614 111 5 0 0 0 - - -;
#X obj 950 588 osc~ 400;
#X msg 950 324 start;
#X msg 952 349 stop;
#X msg 798 279 open testsound.wav;
#X obj 858 377 readsf~ 2;
#X obj 898 313 bng 15 250 50 0 empty empty empty 17 7 0 10 -262144
-1 -1;
#X obj 875 57 loadbang;
#X obj 730 346 spigot;
#X obj 811 425 *~ 0;
#X obj 875 426 *~ 0;
#X floatatom 685 105 5 0 0 0 - - -;
#X obj 707 315 * 0.7;
#X obj 582 228 spigot;
#X obj 622 178 == 0;
#X obj 508 431 *~ 0;
#X obj 812 105 sel 1;
#X obj 816 78 != 1;
#X obj 753 105 sel 1;
#X msg 812 140 0;
#X msg 756 133 0;
#X obj 757 79 != 0;
#X connect 0 0 5 0;
#X connect 2 0 3 0;
#X connect 3 0 1 0;
#X connect 5 0 7 0;
#X connect 5 1 12 0;
#X connect 5 2 23 0;
#X connect 7 0 10 0;
#X connect 10 0 27 0;
#X connect 11 0 24 0;
#X connect 11 0 25 0;
#X connect 12 0 11 0;
#X connect 14 0 17 0;
#X connect 15 0 17 0;
#X connect 16 0 17 0;
#X connect 17 0 21 0;
#X connect 17 1 22 0;
#X connect 17 2 18 0;
#X connect 18 0 16 0;
#X connect 18 0 14 0;
#X connect 19 0 18 0;
#X connect 20 0 21 1;
#X connect 20 0 22 1;
#X connect 21 0 9 0;
#X connect 22 0 9 1;
#X connect 23 0 20 1;
#X connect 23 0 26 0;
#X connect 23 0 29 0;
#X connect 23 0 33 0;
#X connect 24 0 20 0;
#X connect 25 0 27 1;
#X connect 26 0 25 1;
#X connect 27 0 9 0;
#X connect 27 0 9 1;
#X connect 28 0 31 0;
#X connect 29 0 28 0;
#X connect 30 0 32 0;
#X connect 31 0 21 1;
#X connect 31 0 22 1;
#X connect 32 0 27 1;
#X connect 33 0 30 0;
