#N canvas -16 -16 3840 1955 10;
#X obj 473 11 netreceive 3000;
#X msg 1229 107 \; pd dsp 1;
#X obj 1229 36 loadbang;
#X obj 1229 76 del 100;
#X text 1145 75 important ->;
#X obj 574 77 route 0 1 2;
#X text 602 2 0=Frequenz 1=Volume werte von 0-1 2= welcher sopund (1=8bit
0=sinus;
#X floatatom 474 225 5 0 0 0 - - -;
#X text 257 93 zum testen (so wie print zwischendurch);
#X obj 613 716 dac~;
#X obj 509 388 osc~;
#X obj 614 133 * 0.01;
#X floatatom 611 106 5 0 0 0 - - -;
#X msg 950 324 start;
#X msg 952 349 stop;
#X msg 798 279 open testsound.wav;
#X obj 858 377 readsf~ 2;
#X obj 898 313 bng 15 250 50 0 empty empty empty 17 7 0 10 -262144
-1 -1;
#X obj 875 57 loadbang;
#X obj 730 346 spigot;
#X obj 811 425 *~ 0;
#X obj 875 426 *~ 0;
#X floatatom 685 105 5 0 0 0 - - -;
#X obj 707 315 * 0.7;
#X obj 582 228 spigot;
#X obj 622 178 == 0;
#X obj 508 431 *~ 0;
#X obj 812 105 sel 1;
#X obj 816 78 != 1;
#X obj 753 105 sel 1;
#X msg 812 140 0;
#X msg 756 133 0;
#X obj 757 79 != 0;
#N canvas 0 50 450 250 (subpatch) 0;
#X array array2 317803 float 4;
#X coords 0 1 317802 -1 200 140 1;
#X restore 1605 261 graph;
#X msg 1462 196 read -resize testsound_mono.wav array2;
#X obj 1462 239 soundfiler;
#X floatatom 1464 276 10 0 0 0 - - -;
#X obj 1464 311 expr 44100 / $f1;
#X obj 1466 353 phasor~;
#X obj 1469 390 *~;
#X obj 1469 440 samphold~;
#X obj 1309 441 +~;
#X obj 1305 375 *~ 256;
#X obj 1304 327 phasor~;
#X floatatom 1296 281 5 0 0 0 - - -;
#X obj 1622 465 samphold~;
#X obj 1534 507 +~;
#X obj 1534 526 tabread 4~ array2;
#X obj 1309 491 tabread4~ array2;
#X obj 1534 546 *~;
#X obj 1310 565 *~ 0.6;
#X obj 1308 535 *~;
#X obj 1534 426 +~ 0.5;
#X obj 1534 446 wrap~;
#X obj 1534 465 *~ 256;
#X obj 1660 523 tabread~ hanning;
#X obj 1427 493 tabread~ hanning;
#X obj 1390 717 samplerate~;
#X obj 1390 736 / 64;
#X obj 1390 756 osc~;
#X obj 1390 775 *~ -0 \, 5;
#X obj 1390 795 +~ 0.5;
#X obj 1357 845 tabwrite~ hanning;
#X msg 812 140 0;
#X obj 1347 682 bng 15 250 50 0 empty empty empty 17 7 0 10 -262144
-1 -1;
#X msg 1532 731;
#X msg 1532 731 0;
#N canvas 0 50 450 250 (subpatch) 0;
#X array hanning 100 float 3;
#A 0 0.5 0.5 0.5 0.5 0.5 0.5 0.5 0.5 0.5 0.5 0.5 0.5 0.5 0.5 0.5 0.5
0.5 0.5 0.5 0.5 0.5 0.5 0.5 0.5 0.5 0.5 0.5 0.5 0.5 0.5 0.5 0.5 0.5
0.5 0.5 0.5 0.5 0.5 0.5 0.5 0.5 0.5 0.5 0.5 0.5 0.5 0.5 0.5 0.5 0.5
0.5 0.5 0.5 0.5 0.5 0.5 0.5 0.5 0.5 0.5 0.5 0.5 0.5 0.5 0.5 0.5 0.5
0.5 0.5 0.5 0.5 0.5 0.5 0.5 0.5 0.5 0.5 0.5 0.5 0.5 0.5 0.5 0.5 0.5
0.5 0.5 0.5 0.5 0.5 0.5 0.5 0.5 0.5 0.5 0.5 0.5 0.5 0.5 0.5 0.5;
#X coords 0 1 100 -1 200 140 1;
#X restore 1675 677 graph;
#X connect 0 0 5 0;
#X connect 2 0 3 0;
#X connect 3 0 1 0;
#X connect 5 0 7 0;
#X connect 5 1 12 0;
#X connect 5 2 22 0;
#X connect 7 0 10 0;
#X connect 10 0 26 0;
#X connect 11 0 23 0;
#X connect 11 0 24 0;
#X connect 12 0 11 0;
#X connect 13 0 16 0;
#X connect 14 0 16 0;
#X connect 15 0 16 0;
#X connect 16 0 20 0;
#X connect 16 1 21 0;
#X connect 16 2 17 0;
#X connect 17 0 15 0;
#X connect 17 0 13 0;
#X connect 18 0 17 0;
#X connect 19 0 20 1;
#X connect 19 0 21 1;
#X connect 20 0 9 0;
#X connect 21 0 9 1;
#X connect 22 0 19 1;
#X connect 22 0 25 0;
#X connect 22 0 28 0;
#X connect 22 0 32 0;
#X connect 23 0 19 0;
#X connect 24 0 26 1;
#X connect 25 0 24 1;
#X connect 27 0 30 0;
#X connect 28 0 27 0;
#X connect 29 0 31 0;
#X connect 30 0 20 1;
#X connect 30 0 21 1;
#X connect 31 0 26 1;
#X connect 32 0 29 0;
#X connect 34 0 35 0;
#X connect 35 0 36 0;
#X connect 36 0 37 0;
#X connect 36 0 39 1;
#X connect 37 0 38 0;
#X connect 38 0 39 0;
#X connect 39 0 40 0;
#X connect 39 0 45 0;
#X connect 40 0 41 1;
#X connect 41 0 48 0;
#X connect 42 0 41 0;
#X connect 42 0 56 0;
#X connect 43 0 40 1;
#X connect 43 0 42 0;
#X connect 43 0 52 0;
#X connect 44 0 43 0;
#X connect 45 0 46 1;
#X connect 46 0 47 0;
#X connect 47 0 49 0;
#X connect 48 0 51 0;
#X connect 49 0 50 0;
#X connect 50 0 9 0;
#X connect 50 0 9 1;
#X connect 51 0 50 0;
#X connect 52 0 53 0;
#X connect 53 0 45 1;
#X connect 53 0 54 0;
#X connect 54 0 46 0;
#X connect 54 0 55 0;
#X connect 55 0 49 1;
#X connect 56 0 51 1;
#X connect 57 0 58 0;
#X connect 58 0 59 0;
#X connect 59 0 60 0;
#X connect 60 0 61 0;
#X connect 61 0 62 0;
#X connect 64 0 66 0;
#X connect 64 0 66 0;
#X connect 64 0 57 0;
#X connect 64 0 62 0;
